<?xml version="1.0" encoding="UTF-8" standalone="no"?>
<svg
   xmlns:dc="http://purl.org/dc/elements/1.1/"
   xmlns:cc="http://creativecommons.org/ns#"
   xmlns:rdf="http://www.w3.org/1999/02/22-rdf-syntax-ns#"
   xmlns:svg="http://www.w3.org/2000/svg"
   xmlns="http://www.w3.org/2000/svg"
   xmlns:sodipodi="http://sodipodi.sourceforge.net/DTD/sodipodi-0.dtd"
   xmlns:inkscape="http://www.inkscape.org/namespaces/inkscape"
   version="1.1"
   x="0"
   y="0"
   width="370.26001"
   height="400"
   viewBox="0 0 370.26001 400"
   id="svg73"
   sodipodi:docname="logo.svg"
   inkscape:export-filename="/home/rmarko/distrap/website/img/logo.png"
   inkscape:export-xdpi="96"
   inkscape:export-ydpi="96"
   inkscape:version="0.92.0 r15299">
  <metadata
     id="metadata79">
    <rdf:RDF>
      <cc:Work
         rdf:about="">
        <dc:format>image/svg+xml</dc:format>
        <dc:type
           rdf:resource="http://purl.org/dc/dcmitype/StillImage" />
        <dc:title></dc:title>
      </cc:Work>
    </rdf:RDF>
  </metadata>
  <defs
     id="defs77" />
  <sodipodi:namedview
     pagecolor="#ffffff"
     bordercolor="#666666"
     borderopacity="1"
     objecttolerance="10"
     gridtolerance="10"
     guidetolerance="10"
     inkscape:pageopacity="1"
     inkscape:pageshadow="2"
     inkscape:window-width="900"
     inkscape:window-height="1078"
     id="namedview75"
     showgrid="false"
     inkscape:zoom="0.41928945"
     inkscape:cx="-490.11256"
     inkscape:cy="277.82443"
     inkscape:window-x="1920"
     inkscape:window-y="0"
     inkscape:window-maximized="0"
     inkscape:current-layer="svg73" />
  <g
     id="Layer_1"
     transform="matrix(0.32310179,0,0,0.32310179,-448.03215,-209.53368)"
     style="fill:#000000">
    <path
       d="m 1956.906,685.258 240.397,240.398 c 132.768,132.768 132.768,348.027 0,480.795 -132.768,132.768 -348.027,132.768 -480.795,0 -132.767,-132.768 -132.767,-348.027 0,-480.795 l 230.498,-230.498 z m 94.245,133.843 -80.245,80.245 v 223.749 l 64.335,-88.551 -7.171,-45.278 c -5.671,-35.806 18.758,-69.431 54.565,-75.102 5.548,-0.735 2.225,-0.381 9.991,-0.817 33.169,0.767 59.086,22.713 65.111,55.382 5.671,35.806 -18.759,69.431 -54.565,75.102 l -45.278,7.171 -78.336,107.82 126.749,41.183 40.847,-20.812 c 6.856,-3.478 14.281,-5.771 21.918,-6.698 2.115,-0.256 4.251,-0.303 6.377,-0.454 25.542,-0.231 47.897,13.514 59.992,35.838 16.459,32.302 3.616,71.83 -28.686,88.288 -32.302,16.459 -71.829,3.615 -88.288,-28.686 l -20.812,-40.846 -126.749,-41.184 v 133.272 l 32.415,32.416 c 25.635,25.635 25.635,67.197 0,92.831 -25.634,25.635 -67.196,25.635 -92.831,0 -25.635,-25.634 -25.635,-67.196 0,-92.831 l 32.416,-32.416 v -133.272 l -126.75,41.183 -20.812,40.847 c -16.458,32.302 -55.986,45.145 -88.288,28.686 -32.301,-16.458 -45.144,-55.986 -28.686,-88.287 12.779,-23.831 33.376,-35.139 59.993,-35.839 9.939,0.143 19.388,2.894 28.295,7.152 l 40.845,20.812 126.75,-41.183 -78.335,-107.82 -45.279,-7.171 c -35.806,-5.671 -60.236,-39.295 -54.564,-75.102 6.267,-33.807 31.25,-53.871 65.11,-55.382 7.767,0.436 4.444,0.082 9.992,0.817 35.806,5.671 60.236,39.296 54.565,75.102 l -7.172,45.278 64.336,88.55 V 899.346 l -80.245,-80.245 -126.354,126.354 c -121.833,121.833 -121.833,319.364 0,441.197 121.834,121.833 319.364,121.833 441.197,0 121.833,-121.833 121.833,-319.364 0,-441.197 z"
       id="path2"
       style="fill:#000000"
       inkscape:connector-curvature="0" />
    <path
       d="m 1550.781,1622.757 q 0,13.218 -2.039,25.312 -2.039,12.094 -6.539,22.5 -4.5,10.406 -11.672,18.914 -7.172,8.508 -17.578,14.555 -10.406,6.047 -24.188,9.352 -13.781,3.304 -31.359,3.304 h -39.375 v -183.797 h 47.391 q 43.031,0 64.195,22.149 21.164,22.148 21.164,67.711 z m -26.297,1.828 q 0,-19.547 -3.656,-33.047 -3.656,-13.5 -11.11,-21.797 -7.453,-8.297 -18.703,-12.023 -11.25,-3.727 -26.437,-3.727 h -21.516 v 141.047 h 18.703 q 62.719,0 62.719,-70.453 z"
       id="path4"
       style="fill:#000000"
       inkscape:connector-curvature="0" />
    <path
       d="m 1627.562,1553.991 h -42.328 v -21.094 h 109.969 v 21.094 h -42.328 v 141.328 h 42.328 v 21.375 h -109.969 v -21.375 h 42.328 z"
       id="path6"
       style="fill:#000000"
       inkscape:connector-curvature="0" />
    <path
       d="m 1859.593,1666.913 q 0,13.078 -5.343,22.922 -5.344,9.844 -14.907,16.383 -9.562,6.539 -22.992,9.773 -13.429,3.234 -29.601,3.234 -7.313,0 -14.555,-0.562 -7.242,-0.563 -13.922,-1.406 -6.68,-0.844 -12.586,-1.969 -5.906,-1.125 -10.687,-2.391 v -24.187 q 10.547,3.937 23.695,6.187 13.148,2.25 29.883,2.25 12.094,0 20.601,-1.898 8.508,-1.899 13.922,-5.625 5.414,-3.727 7.875,-9.07 2.461,-5.344 2.461,-12.235 0,-7.453 -4.148,-12.726 -4.149,-5.274 -10.899,-9.422 -6.75,-4.149 -15.398,-7.594 -8.649,-3.445 -17.649,-7.102 -9,-3.656 -17.648,-7.945 -8.648,-4.289 -15.398,-10.125 -6.75,-5.836 -10.899,-13.711 -4.148,-7.875 -4.148,-18.703 0,-9.422 3.937,-18.562 3.938,-9.141 12.235,-16.243 8.296,-7.101 21.304,-11.461 13.008,-4.359 31.008,-4.359 4.641,0 10.055,0.422 5.414,0.422 10.968,1.195 5.555,0.774 10.969,1.758 5.414,0.984 10.055,2.109 v 22.5 q -10.828,-3.093 -21.656,-4.71 -10.828,-1.618 -20.953,-1.618 -21.516,0 -31.641,7.172 -10.125,7.172 -10.125,19.266 0,7.453 4.148,12.797 4.149,5.343 10.899,9.562 6.75,4.219 15.398,7.664 8.649,3.446 17.649,7.102 9,3.656 17.648,8.015 8.649,4.36 15.399,10.336 6.75,5.977 10.898,13.993 4.148,8.015 4.148,18.984 z"
       id="path8"
       style="fill:#000000"
       inkscape:connector-curvature="0" />
    <path
       d="m 2023.984,1554.272 h -54.422 v 162.422 h -25.312 v -162.422 h -54.422 v -21.375 h 134.156 z"
       id="path10"
       style="fill:#000000"
       inkscape:connector-curvature="0" />
    <path
       d="m 2183.875,1716.694 h -28.266 l -27.422,-58.781 q -3.093,-6.75 -6.328,-11.18 -3.234,-4.429 -6.961,-7.031 -3.726,-2.602 -8.156,-3.727 -4.43,-1.125 -9.914,-1.125 h -11.813 v 81.844 h -25.031 v -183.797 h 49.219 q 16.031,0 27.562,3.516 11.532,3.516 18.914,9.844 7.383,6.328 10.829,15.258 3.445,8.929 3.445,19.757 0,8.578 -2.531,16.243 -2.532,7.664 -7.524,13.921 -4.992,6.258 -12.375,10.829 -7.383,4.57 -16.945,6.82 7.734,2.672 13.148,9.351 5.414,6.68 11.039,17.789 z m -40.078,-133.312 q 0,-14.766 -9.211,-22.078 -9.211,-7.313 -25.946,-7.313 h -23.625 v 60.75 h 20.25 q 8.86,0 15.961,-2.039 7.102,-2.039 12.094,-6.047 4.992,-4.008 7.734,-9.844 2.743,-5.836 2.743,-13.429 z"
       id="path12"
       style="fill:#000000"
       inkscape:connector-curvature="0" />
    <path
       d="m 2351.359,1716.694 h -27.281 l -12.797,-40.078 h -76.5 l -12.937,40.078 h -26.016 l 61.031,-183.797 h 34.313 z m -47.25,-62.437 -31.078,-98.297 -31.078,98.297 z"
       id="path14"
       style="fill:#000000"
       inkscape:connector-curvature="0" />
    <path
       d="m 2495.64,1589.147 q 0,11.25 -4.218,22.289 -4.219,11.039 -13.078,19.758 -8.86,8.719 -22.641,14.133 -13.781,5.414 -32.906,5.414 h -22.782 v 65.953 h -25.031 v -183.797 h 51.75 q 13.641,0 26.156,3.024 12.516,3.023 22.008,9.773 9.492,6.75 15.117,17.438 5.625,10.687 5.625,26.015 z m -26.015,1.125 q 0,-17.718 -11.602,-27.14 -11.601,-9.422 -32.414,-9.422 h -25.594 v 75.656 h 23.344 q 22.219,0 34.242,-9.703 12.024,-9.703 12.024,-29.391 z"
       id="path16"
       style="fill:#000000"
       inkscape:connector-curvature="0" />
    <path
       d="m 1418.418,1781.057 q 0,-4.25 1.162,-7.554 1.162,-3.304 3.303,-5.578 2.142,-2.274 5.147,-3.453 3.005,-1.179 6.69,-1.179 1.594,0 3.138,0.199 1.544,0.2 3.038,0.631 v -14.012 h 5.811 v 46.916 h -5.18 l -0.199,-6.308 q -2.424,3.519 -5.246,5.213 -2.823,1.693 -6.11,1.693 -2.855,0 -5.03,-1.195 -2.175,-1.196 -3.619,-3.37 -1.444,-2.175 -2.175,-5.23 -0.73,-3.054 -0.73,-6.773 z m 5.91,-0.365 q 0,6.042 1.776,9.014 1.776,2.972 5.03,2.972 2.192,0 4.632,-1.959 2.441,-1.959 5.13,-5.811 v -15.472 q -1.428,-0.664 -3.154,-1.013 -1.727,-0.349 -3.42,-0.349 -4.715,0 -7.355,3.055 -2.639,3.055 -2.639,9.563 z"
       id="path18"
       style="fill:#000000"
       inkscape:connector-curvature="0" />
    <path
       d="m 1468.853,1768.473 h -9.861 v -4.781 h 15.705 v 28.521 h 9.928 v 4.814 h -26.729 v -4.814 h 10.957 z m 2.026,-18.76 q 0.962,0 1.793,0.349 0.83,0.348 1.444,0.979 0.614,0.631 0.963,1.444 0.348,0.814 0.348,1.777 0,0.93 -0.348,1.76 -0.349,0.83 -0.963,1.461 -0.614,0.63 -1.444,0.979 -0.831,0.349 -1.793,0.349 -0.963,0 -1.793,-0.349 -0.831,-0.349 -1.445,-0.979 -0.614,-0.631 -0.963,-1.461 -0.348,-0.83 -0.348,-1.76 0,-0.963 0.348,-1.777 0.349,-0.813 0.963,-1.444 0.614,-0.631 1.445,-0.979 0.83,-0.349 1.793,-0.349 z"
       id="path20"
       style="fill:#000000"
       inkscape:connector-curvature="0" />
    <path
       d="m 1521.281,1787.93 q 0,1.76 -0.598,3.154 -0.597,1.395 -1.627,2.474 -1.029,1.079 -2.39,1.843 -1.362,0.763 -2.906,1.261 -1.544,0.498 -3.171,0.731 -1.626,0.232 -3.187,0.232 -3.387,0 -6.226,-0.299 -2.838,-0.299 -5.561,-0.963 v -5.312 q 2.922,0.83 5.81,1.262 2.889,0.431 5.745,0.431 4.15,0 6.142,-1.129 1.992,-1.129 1.992,-3.22 0,-0.897 -0.315,-1.611 -0.316,-0.714 -1.146,-1.361 -0.83,-0.647 -2.573,-1.345 -1.743,-0.697 -4.765,-1.594 -2.257,-0.664 -4.166,-1.51 -1.91,-0.847 -3.304,-2.009 -1.395,-1.162 -2.192,-2.723 -0.796,-1.56 -0.796,-3.685 0,-1.395 0.647,-3.055 0.647,-1.66 2.208,-3.088 1.561,-1.428 4.217,-2.374 2.656,-0.946 6.64,-0.946 1.959,0 4.35,0.216 2.391,0.216 4.98,0.747 v 5.146 q -2.722,-0.664 -5.163,-0.979 -2.44,-0.316 -4.233,-0.316 -2.158,0 -3.636,0.332 -1.477,0.332 -2.39,0.913 -0.913,0.581 -1.312,1.362 -0.398,0.78 -0.398,1.677 0,0.896 0.348,1.626 0.349,0.731 1.295,1.412 0.947,0.68 2.64,1.361 1.693,0.681 4.416,1.477 2.955,0.864 4.98,1.81 2.026,0.946 3.287,2.108 1.262,1.163 1.81,2.623 0.548,1.461 0.548,3.321 z"
       id="path22"
       style="fill:#000000"
       inkscape:connector-curvature="0" />
    <path
       d="m 1559.132,1796.563 q -1.959,0.498 -4.05,0.713 -2.092,0.216 -4.25,0.216 -6.276,0 -9.364,-2.839 -3.088,-2.838 -3.088,-8.715 v -17.399 h -9.33 v -4.847 h 9.33 v -9.165 l 5.778,-1.494 v 10.659 h 14.974 v 4.847 h -14.974 v 16.934 q 0,3.586 1.909,5.362 1.909,1.776 5.628,1.776 1.594,0 3.486,-0.249 1.893,-0.249 3.951,-0.78 z"
       id="path24"
       style="fill:#000000"
       inkscape:connector-curvature="0" />
    <path
       d="m 1571.019,1763.692 h 5.279 l 0.166,6.142 q 2.956,-3.553 5.828,-5.146 2.872,-1.594 5.794,-1.594 5.179,0 7.852,3.353 2.673,3.354 2.474,9.961 h -5.844 q 0.1,-4.382 -1.278,-6.358 -1.378,-1.976 -4.035,-1.976 -1.162,0 -2.34,0.415 -1.179,0.415 -2.424,1.329 -1.245,0.913 -2.64,2.34 -1.394,1.428 -2.988,3.453 v 21.416 h -5.844 z"
       id="path26"
       style="fill:#000000"
       inkscape:connector-curvature="0" />
    <path
       d="m 1618.4,1768.473 h -9.861 v -4.781 h 15.705 v 28.521 h 9.928 v 4.814 h -26.729 v -4.814 h 10.957 z m 2.025,-18.76 q 0.963,0 1.793,0.349 0.83,0.348 1.445,0.979 0.614,0.631 0.963,1.444 0.348,0.814 0.348,1.777 0,0.93 -0.348,1.76 -0.349,0.83 -0.963,1.461 -0.615,0.63 -1.445,0.979 -0.83,0.349 -1.793,0.349 -0.962,0 -1.793,-0.349 -0.83,-0.349 -1.444,-0.979 -0.614,-0.631 -0.963,-1.461 -0.348,-0.83 -0.348,-1.76 0,-0.963 0.348,-1.777 0.349,-0.813 0.963,-1.444 0.614,-0.631 1.444,-0.979 0.831,-0.349 1.793,-0.349 z"
       id="path28"
       style="fill:#000000"
       inkscape:connector-curvature="0" />
    <path
       d="m 1672.92,1779.762 q 0,4.15 -1.146,7.421 -1.145,3.27 -3.254,5.545 -2.108,2.274 -5.13,3.486 -3.021,1.212 -6.806,1.212 -2.955,0 -6.043,-0.565 -3.088,-0.564 -6.11,-1.793 v -44.957 h 5.778 v 12.916 l -0.266,6.176 q 2.49,-3.353 5.329,-4.731 2.839,-1.378 6.093,-1.378 2.855,0 5.014,1.195 2.158,1.195 3.619,3.37 1.461,2.175 2.191,5.246 0.731,3.072 0.731,6.857 z m -5.911,0.265 q 0,-2.623 -0.381,-4.814 -0.382,-2.191 -1.212,-3.752 -0.83,-1.56 -2.125,-2.44 -1.295,-0.88 -3.088,-0.88 -1.096,0 -2.225,0.348 -1.129,0.349 -2.341,1.162 -1.212,0.814 -2.556,2.159 -1.345,1.344 -2.872,3.337 v 16.17 q 1.693,0.664 3.453,1.045 1.76,0.382 3.353,0.382 1.992,0 3.802,-0.631 1.81,-0.63 3.188,-2.108 1.377,-1.478 2.191,-3.918 0.813,-2.44 0.813,-6.06 z"
       id="path30"
       style="fill:#000000"
       inkscape:connector-curvature="0" />
    <path
       d="m 1708.613,1797.027 h -5.18 l -0.199,-5.378 q -1.494,1.726 -2.839,2.872 -1.345,1.145 -2.673,1.842 -1.328,0.698 -2.673,0.98 -1.344,0.282 -2.838,0.282 -5.147,0 -7.77,-3.021 -2.623,-3.022 -2.623,-9.131 v -21.781 h 5.777 v 21.316 q 0,7.67 5.778,7.67 1.062,0 2.075,-0.316 1.013,-0.315 2.125,-1.095 1.112,-0.781 2.391,-2.109 1.278,-1.328 2.872,-3.353 v -22.113 h 5.777 z"
       id="path32"
       style="fill:#000000"
       inkscape:connector-curvature="0" />
    <path
       d="m 1746.066,1796.563 q -1.959,0.498 -4.051,0.713 -2.092,0.216 -4.25,0.216 -6.275,0 -9.363,-2.839 -3.088,-2.838 -3.088,-8.715 v -17.399 h -9.33 v -4.847 h 9.33 v -9.165 l 5.777,-1.494 v 10.659 h 14.975 v 4.847 h -14.975 v 16.934 q 0,3.586 1.91,5.362 1.909,1.776 5.628,1.776 1.593,0 3.486,-0.249 1.892,-0.249 3.951,-0.78 z"
       id="path34"
       style="fill:#000000"
       inkscape:connector-curvature="0" />
    <path
       d="m 1784.748,1778.6 q 0,1.228 -0.034,2.058 -0.033,0.83 -0.099,1.561 h -23.408 q 0,5.113 2.855,7.852 2.856,2.74 8.235,2.74 1.46,0 2.921,-0.117 1.461,-0.116 2.823,-0.315 1.361,-0.199 2.606,-0.448 1.245,-0.249 2.308,-0.548 v 4.748 q -2.358,0.664 -5.329,1.079 -2.972,0.415 -6.16,0.415 -4.283,0 -7.371,-1.162 -3.088,-1.162 -5.063,-3.37 -1.976,-2.208 -2.922,-5.412 -0.946,-3.204 -0.946,-7.255 0,-3.52 1.012,-6.657 1.013,-3.138 2.955,-5.512 1.943,-2.374 4.765,-3.769 2.822,-1.394 6.408,-1.394 3.487,0 6.176,1.096 2.69,1.095 4.532,3.104 1.843,2.009 2.789,4.881 0.947,2.872 0.947,6.425 z m -6.01,-0.83 q 0.1,-2.225 -0.432,-4.068 -0.531,-1.843 -1.643,-3.171 -1.113,-1.328 -2.773,-2.075 -1.66,-0.747 -3.851,-0.747 -1.893,0 -3.453,0.731 -1.561,0.73 -2.69,2.058 -1.129,1.328 -1.826,3.188 -0.697,1.859 -0.863,4.084 z"
       id="path36"
       style="fill:#000000"
       inkscape:connector-curvature="0" />
    <path
       d="m 1792.285,1781.057 q 0,-4.25 1.162,-7.554 1.162,-3.304 3.304,-5.578 2.141,-2.274 5.146,-3.453 3.005,-1.179 6.691,-1.179 1.593,0 3.137,0.199 1.544,0.2 3.038,0.631 v -14.012 h 5.811 v 46.916 h -5.18 l -0.199,-6.308 q -2.424,3.519 -5.246,5.213 -2.822,1.693 -6.11,1.693 -2.855,0 -5.03,-1.195 -2.175,-1.196 -3.619,-3.37 -1.444,-2.175 -2.175,-5.23 -0.73,-3.054 -0.73,-6.773 z m 5.91,-0.365 q 0,6.042 1.776,9.014 1.777,2.972 5.031,2.972 2.191,0 4.631,-1.959 2.441,-1.959 5.13,-5.811 v -15.472 q -1.427,-0.664 -3.154,-1.013 -1.727,-0.349 -3.42,-0.349 -4.715,0 -7.354,3.055 -2.64,3.055 -2.64,9.563 z"
       id="path38"
       style="fill:#000000"
       inkscape:connector-curvature="0" />
    <path
       d="m 1870.113,1763.692 h 5.279 l 0.166,6.142 q 2.955,-3.553 5.827,-5.146 2.872,-1.594 5.794,-1.594 5.18,0 7.853,3.353 2.673,3.354 2.473,9.961 h -5.843 q 0.099,-4.382 -1.279,-6.358 -1.378,-1.976 -4.034,-1.976 -1.162,0 -2.341,0.415 -1.178,0.415 -2.423,1.329 -1.246,0.913 -2.64,2.34 -1.395,1.428 -2.988,3.453 v 21.416 h -5.844 z"
       id="path40"
       style="fill:#000000"
       inkscape:connector-curvature="0" />
    <path
       d="m 1927.554,1797.027 -0.132,-4.482 q -2.723,2.689 -5.529,3.885 -2.805,1.195 -5.893,1.195 -2.856,0 -4.881,-0.73 -2.026,-0.731 -3.337,-2.009 -1.312,-1.278 -1.926,-3.005 -0.614,-1.727 -0.614,-3.752 0,-5.014 3.735,-7.853 3.736,-2.838 11.04,-2.838 h 6.906 v -2.922 q 0,-2.955 -1.892,-4.732 -1.893,-1.776 -5.777,-1.776 -2.823,0 -5.562,0.631 -2.739,0.631 -5.661,1.793 v -5.213 q 1.096,-0.399 2.44,-0.78 1.345,-0.382 2.839,-0.681 1.494,-0.299 3.121,-0.482 1.627,-0.182 3.287,-0.182 3.022,0 5.446,0.664 2.424,0.664 4.1,2.025 1.677,1.362 2.574,3.42 0.896,2.059 0.896,4.848 v 22.976 z m -0.631,-15.173 h -7.337 q -2.159,0 -3.719,0.431 -1.561,0.432 -2.557,1.229 -0.996,0.797 -1.477,1.909 -0.482,1.112 -0.482,2.507 0,0.963 0.299,1.843 0.299,0.879 0.963,1.56 0.664,0.681 1.726,1.079 1.063,0.399 2.59,0.399 1.993,0 4.566,-1.212 2.573,-1.212 5.428,-3.835 z"
       id="path42"
       style="fill:#000000"
       inkscape:connector-curvature="0" />
    <path
       d="m 1972.013,1779.762 q 0,4.449 -1.245,7.769 -1.245,3.321 -3.436,5.512 -2.192,2.191 -5.18,3.287 -2.988,1.096 -6.475,1.096 -1.593,0 -3.171,-0.166 -1.577,-0.166 -3.204,-0.565 v 13.946 h -5.777 v -46.949 h 5.147 l 0.365,5.578 q 2.49,-3.42 5.312,-4.798 2.823,-1.378 6.11,-1.378 2.855,0 5.013,1.195 2.158,1.195 3.619,3.37 1.461,2.175 2.192,5.246 0.73,3.072 0.73,6.857 z m -5.91,0.265 q 0,-2.623 -0.382,-4.814 -0.382,-2.191 -1.212,-3.752 -0.83,-1.56 -2.125,-2.44 -1.295,-0.88 -3.087,-0.88 -1.096,0 -2.225,0.348 -1.129,0.349 -2.341,1.162 -1.212,0.814 -2.557,2.159 -1.344,1.344 -2.872,3.337 v 16.17 q 1.594,0.664 3.354,1.045 1.76,0.382 3.453,0.382 4.682,0 7.338,-3.171 2.656,-3.171 2.656,-9.546 z"
       id="path44"
       style="fill:#000000"
       inkscape:connector-curvature="0" />
    <path
       d="m 1992.267,1768.473 h -9.861 v -4.781 h 15.705 v 28.521 h 9.928 v 4.814 h -26.729 v -4.814 h 10.957 z m 2.026,-18.76 q 0.962,0 1.793,0.349 0.83,0.348 1.444,0.979 0.614,0.631 0.963,1.444 0.348,0.814 0.348,1.777 0,0.93 -0.348,1.76 -0.349,0.83 -0.963,1.461 -0.614,0.63 -1.444,0.979 -0.831,0.349 -1.793,0.349 -0.963,0 -1.793,-0.349 -0.83,-0.349 -1.445,-0.979 -0.614,-0.631 -0.963,-1.461 -0.348,-0.83 -0.348,-1.76 0,-0.963 0.348,-1.777 0.349,-0.813 0.963,-1.444 0.615,-0.631 1.445,-0.979 0.83,-0.349 1.793,-0.349 z"
       id="path46"
       style="fill:#000000"
       inkscape:connector-curvature="0" />
    <path
       d="m 2016.605,1781.057 q 0,-4.25 1.162,-7.554 1.162,-3.304 3.304,-5.578 2.142,-2.274 5.146,-3.453 3.005,-1.179 6.691,-1.179 1.594,0 3.138,0.199 1.543,0.2 3.038,0.631 v -14.012 h 5.81 v 46.916 h -5.18 l -0.199,-6.308 q -2.424,3.519 -5.246,5.213 -2.822,1.693 -6.109,1.693 -2.856,0 -5.03,-1.195 -2.175,-1.196 -3.62,-3.37 -1.444,-2.175 -2.174,-5.23 -0.731,-3.054 -0.731,-6.773 z m 5.91,-0.365 q 0,6.042 1.777,9.014 1.776,2.972 5.03,2.972 2.191,0 4.632,-1.959 2.44,-1.959 5.13,-5.811 v -15.472 q -1.428,-0.664 -3.155,-1.013 -1.726,-0.349 -3.42,-0.349 -4.714,0 -7.354,3.055 -2.64,3.055 -2.64,9.563 z"
       id="path48"
       style="fill:#000000"
       inkscape:connector-curvature="0" />
    <path
       d="m 2121.56,1779.762 q 0,4.449 -1.245,7.769 -1.245,3.321 -3.436,5.512 -2.192,2.191 -5.18,3.287 -2.988,1.096 -6.475,1.096 -1.593,0 -3.171,-0.166 -1.577,-0.166 -3.204,-0.565 v 13.946 h -5.777 v -46.949 h 5.147 l 0.365,5.578 q 2.49,-3.42 5.312,-4.798 2.823,-1.378 6.11,-1.378 2.855,0 5.013,1.195 2.158,1.195 3.619,3.37 1.461,2.175 2.192,5.246 0.73,3.072 0.73,6.857 z m -5.91,0.265 q 0,-2.623 -0.382,-4.814 -0.382,-2.191 -1.212,-3.752 -0.83,-1.56 -2.125,-2.44 -1.295,-0.88 -3.087,-0.88 -1.096,0 -2.225,0.348 -1.129,0.349 -2.341,1.162 -1.212,0.814 -2.557,2.159 -1.344,1.344 -2.872,3.337 v 16.17 q 1.594,0.664 3.354,1.045 1.76,0.382 3.453,0.382 4.682,0 7.338,-3.171 2.656,-3.171 2.656,-9.546 z"
       id="path50"
       style="fill:#000000"
       inkscape:connector-curvature="0" />
    <path
       d="m 2131.82,1763.692 h 5.279 l 0.166,6.142 q 2.955,-3.553 5.828,-5.146 2.872,-1.594 5.793,-1.594 5.18,0 7.853,3.353 2.673,3.354 2.474,9.961 h -5.844 q 0.1,-4.382 -1.278,-6.358 -1.378,-1.976 -4.035,-1.976 -1.162,0 -2.34,0.415 -1.179,0.415 -2.424,1.329 -1.245,0.913 -2.64,2.34 -1.394,1.428 -2.988,3.453 v 21.416 h -5.844 z"
       id="path52"
       style="fill:#000000"
       inkscape:connector-curvature="0" />
    <path
       d="m 2196.865,1780.094 q 0,3.885 -1.096,7.122 -1.095,3.237 -3.154,5.545 -2.059,2.307 -5.014,3.586 -2.955,1.278 -6.707,1.278 -3.586,0 -6.425,-1.112 -2.838,-1.112 -4.814,-3.271 -1.976,-2.158 -3.021,-5.345 -1.046,-3.188 -1.046,-7.338 0,-3.885 1.095,-7.089 1.096,-3.204 3.155,-5.512 2.058,-2.307 5.013,-3.586 2.955,-1.278 6.707,-1.278 3.586,0 6.425,1.112 2.839,1.112 4.815,3.254 1.975,2.142 3.021,5.329 1.046,3.188 1.046,7.305 z m -5.91,0.265 q 0,-3.087 -0.681,-5.395 -0.68,-2.308 -1.942,-3.852 -1.262,-1.544 -3.072,-2.324 -1.809,-0.78 -4.034,-0.78 -2.59,0 -4.432,1.013 -1.843,1.012 -3.022,2.706 -1.178,1.693 -1.726,3.934 -0.548,2.241 -0.548,4.698 0,3.088 0.68,5.413 0.681,2.324 1.943,3.868 1.262,1.544 3.055,2.324 1.793,0.78 4.05,0.78 2.59,0 4.433,-1.012 1.843,-1.013 3.021,-2.706 1.179,-1.694 1.727,-3.935 0.548,-2.241 0.548,-4.732 z"
       id="path54"
       style="fill:#000000"
       inkscape:connector-curvature="0" />
    <path
       d="m 2232.094,1796.563 q -1.959,0.498 -4.051,0.713 -2.092,0.216 -4.25,0.216 -6.276,0 -9.364,-2.839 -3.087,-2.838 -3.087,-8.715 v -17.399 h -9.331 v -4.847 h 9.331 v -9.165 l 5.777,-1.494 v 10.659 h 14.975 v 4.847 h -14.975 v 16.934 q 0,3.586 1.909,5.362 1.909,1.776 5.628,1.776 1.594,0 3.486,-0.249 1.893,-0.249 3.952,-0.78 z"
       id="path56"
       style="fill:#000000"
       inkscape:connector-curvature="0" />
    <path
       d="m 2271.638,1780.094 q 0,3.885 -1.095,7.122 -1.096,3.237 -3.155,5.545 -2.058,2.307 -5.013,3.586 -2.955,1.278 -6.707,1.278 -3.586,0 -6.425,-1.112 -2.839,-1.112 -4.815,-3.271 -1.975,-2.158 -3.021,-5.345 -1.046,-3.188 -1.046,-7.338 0,-3.885 1.096,-7.089 1.095,-3.204 3.154,-5.512 2.059,-2.307 5.014,-3.586 2.955,-1.278 6.707,-1.278 3.586,0 6.425,1.112 2.838,1.112 4.814,3.254 1.976,2.142 3.022,5.329 1.045,3.188 1.045,7.305 z m -5.91,0.265 q 0,-3.087 -0.68,-5.395 -0.681,-2.308 -1.943,-3.852 -1.261,-1.544 -3.071,-2.324 -1.81,-0.78 -4.034,-0.78 -2.59,0 -4.433,1.013 -1.843,1.012 -3.021,2.706 -1.179,1.693 -1.727,3.934 -0.548,2.241 -0.548,4.698 0,3.088 0.681,5.413 0.681,2.324 1.942,3.868 1.262,1.544 3.055,2.324 1.793,0.78 4.051,0.78 2.59,0 4.432,-1.012 1.843,-1.013 3.022,-2.706 1.179,-1.694 1.726,-3.935 0.548,-2.241 0.548,-4.732 z"
       id="path58"
       style="fill:#000000"
       inkscape:connector-curvature="0" />
    <path
       d="m 2306.867,1796.563 q -1.959,0.498 -4.051,0.713 -2.092,0.216 -4.25,0.216 -6.275,0 -9.363,-2.839 -3.088,-2.838 -3.088,-8.715 v -17.399 h -9.33 v -4.847 h 9.33 v -9.165 l 5.777,-1.494 v 10.659 h 14.975 v 4.847 h -14.975 v 16.934 q 0,3.586 1.91,5.362 1.909,1.776 5.627,1.776 1.594,0 3.487,-0.249 1.892,-0.249 3.951,-0.78 z"
       id="path60"
       style="fill:#000000"
       inkscape:connector-curvature="0" />
    <path
       d="m 2347.043,1763.692 -11.356,29.816 q -1.76,4.549 -3.635,7.836 -1.876,3.287 -4.101,5.395 -2.225,2.109 -4.881,3.105 -2.656,0.996 -5.943,0.996 -0.864,0 -1.561,-0.033 -0.697,-0.033 -1.527,-0.1 v -5.246 q 0.73,0.1 1.594,0.183 0.863,0.083 1.826,0.083 1.593,0 2.971,-0.465 1.378,-0.465 2.607,-1.511 1.228,-1.046 2.357,-2.706 1.129,-1.66 2.192,-4.018 l -13.315,-33.335 h 6.574 l 8.434,22.046 1.693,5.18 1.926,-5.312 7.803,-21.914 z"
       id="path62"
       style="fill:#000000"
       inkscape:connector-curvature="0" />
    <path
       d="m 2383.267,1779.762 q 0,4.449 -1.245,7.769 -1.245,3.321 -3.436,5.512 -2.192,2.191 -5.18,3.287 -2.988,1.096 -6.475,1.096 -1.593,0 -3.171,-0.166 -1.577,-0.166 -3.204,-0.565 v 13.946 h -5.777 v -46.949 h 5.147 l 0.365,5.578 q 2.49,-3.42 5.312,-4.798 2.823,-1.378 6.11,-1.378 2.855,0 5.013,1.195 2.159,1.195 3.619,3.37 1.461,2.175 2.192,5.246 0.73,3.072 0.73,6.857 z m -5.91,0.265 q 0,-2.623 -0.382,-4.814 -0.381,-2.191 -1.212,-3.752 -0.83,-1.56 -2.125,-2.44 -1.294,-0.88 -3.087,-0.88 -1.096,0 -2.225,0.348 -1.129,0.349 -2.341,1.162 -1.212,0.814 -2.557,2.159 -1.344,1.344 -2.872,3.337 v 16.17 q 1.594,0.664 3.354,1.045 1.76,0.382 3.453,0.382 4.682,0 7.338,-3.171 2.656,-3.171 2.656,-9.546 z"
       id="path64"
       style="fill:#000000"
       inkscape:connector-curvature="0" />
    <path
       d="m 2403.521,1768.473 h -9.861 v -4.781 h 15.705 v 28.521 h 9.928 v 4.814 h -26.729 v -4.814 h 10.957 z m 2.026,-18.76 q 0.963,0 1.793,0.349 0.83,0.348 1.444,0.979 0.614,0.631 0.963,1.444 0.348,0.814 0.348,1.777 0,0.93 -0.348,1.76 -0.349,0.83 -0.963,1.461 -0.614,0.63 -1.444,0.979 -0.83,0.349 -1.793,0.349 -0.963,0 -1.793,-0.349 -0.83,-0.349 -1.445,-0.979 -0.614,-0.631 -0.963,-1.461 -0.348,-0.83 -0.348,-1.76 0,-0.963 0.348,-1.777 0.349,-0.813 0.963,-1.444 0.615,-0.631 1.445,-0.979 0.83,-0.349 1.793,-0.349 z"
       id="path66"
       style="fill:#000000"
       inkscape:connector-curvature="0" />
    <path
       d="m 2429.552,1763.692 h 5.147 l 0.232,5.378 q 1.461,-1.726 2.823,-2.872 1.361,-1.145 2.673,-1.842 1.311,-0.698 2.672,-0.98 1.362,-0.282 2.823,-0.282 5.146,0 7.786,3.038 2.639,3.038 2.639,9.147 v 21.748 h -5.777 v -21.283 q 0,-3.918 -1.461,-5.794 -1.461,-1.876 -4.349,-1.876 -1.063,0 -2.076,0.316 -1.012,0.315 -2.108,1.095 -1.096,0.781 -2.374,2.109 -1.278,1.328 -2.872,3.32 v 22.113 h -5.778 z"
       id="path68"
       style="fill:#000000"
       inkscape:connector-curvature="0" />
    <path
       d="m 2490.945,1768.406 q 0.93,1.162 1.444,2.706 0.515,1.544 0.515,3.337 0,2.59 -0.946,4.732 -0.947,2.141 -2.673,3.669 -1.727,1.527 -4.134,2.374 -2.407,0.846 -5.296,0.846 -2.092,0 -3.918,-0.448 -1.826,-0.448 -2.888,-1.112 -0.631,0.93 -1.063,1.76 -0.432,0.83 -0.432,1.859 0,1.262 1.212,2.092 1.212,0.83 3.204,0.896 l 8.766,0.332 q 2.49,0.067 4.599,0.631 2.108,0.565 3.619,1.627 1.511,1.063 2.357,2.623 0.847,1.561 0.847,3.619 0,2.225 -0.963,4.217 -0.963,1.992 -2.972,3.503 -2.008,1.511 -5.096,2.407 -3.088,0.897 -7.338,0.897 -4.051,0 -6.89,-0.648 -2.839,-0.647 -4.665,-1.793 -1.826,-1.145 -2.656,-2.722 -0.83,-1.577 -0.83,-3.47 0,-2.424 1.129,-4.25 1.129,-1.826 3.486,-3.52 -0.863,-0.398 -1.494,-0.996 -0.631,-0.597 -1.029,-1.311 -0.399,-0.714 -0.598,-1.511 -0.199,-0.797 -0.199,-1.56 0,-2.159 1.012,-3.952 1.013,-1.793 2.408,-3.386 -0.631,-0.764 -1.113,-1.495 -0.481,-0.73 -0.83,-1.577 -0.348,-0.846 -0.531,-1.826 -0.183,-0.979 -0.183,-2.241 0,-2.59 0.947,-4.731 0.946,-2.142 2.656,-3.669 1.71,-1.528 4.117,-2.374 2.407,-0.847 5.329,-0.847 1.229,0 2.358,0.166 1.129,0.166 1.992,0.432 h 12.086 v 4.714 z m -20.055,33.436 q 0,2.357 2.457,3.436 2.457,1.08 6.84,1.08 2.756,0 4.632,-0.499 1.876,-0.498 3.022,-1.311 1.145,-0.814 1.643,-1.859 0.498,-1.046 0.498,-2.142 0,-2.025 -1.66,-2.988 -1.66,-0.963 -5.08,-1.129 l -8.699,-0.299 q -1.096,0.73 -1.81,1.428 -0.714,0.697 -1.112,1.411 -0.399,0.714 -0.565,1.428 -0.166,0.713 -0.166,1.444 z m 1.76,-27.26 q 0,1.594 0.531,2.922 0.532,1.328 1.495,2.258 0.962,0.93 2.274,1.444 1.311,0.515 2.905,0.515 1.727,0 3.072,-0.581 1.344,-0.581 2.257,-1.577 0.913,-0.996 1.395,-2.291 0.481,-1.295 0.481,-2.69 0,-1.594 -0.531,-2.922 -0.531,-1.328 -1.494,-2.258 -0.963,-0.929 -2.275,-1.444 -1.311,-0.515 -2.905,-0.515 -1.726,0 -3.071,0.598 -1.345,0.598 -2.258,1.577 -0.913,0.98 -1.394,2.275 -0.482,1.295 -0.482,2.689 z"
       id="path70"
       style="fill:#000000"
       inkscape:connector-curvature="0" />
  </g>
</svg>
